# xmcd CD database file
# Copyright (C) 1993-1998 Ti Kan
#
# Track frame offsets:
#	182
#	11730
#	23302
#	35622
#	47330
#	59700
#	74020
#	86695
#	101630
#	112035
#	123840
#	137040
#	148757
#	161185
#	173797
#	185695
#	196692
#	210722
#	224840
#	238320
#
# Disc length: 3355 seconds
#
# Revision: 1
# Processed by: cddbd v1.4b41PL1 Copyright (c) Steve Scherf et al.
# Submitted via: NotifyCDPlayer(CDDB) 1.51.2
#
DISCID=330d1914
DTITLE=Muddy Waters - Rolling Stone
DYEAR=1900
DGENRE=
TTITLE0=Little Anna Mae
TTITLE1=Gipsy Woman
TTITLE2=Good Looking Woman
TTITLE3=Mean Disposition
TTITLE4=I Can't be Satisfied (Looking For My Lady)
TTITLE5=I Feel Like Going Home
TTITLE6=Train Fare Home Blues
TTITLE7=Streamline Woman
TTITLE8=Mean Red Spider
TTITLE9=Kind Hearted Woman
TTITLE10=Down South Blues
TTITLE11=Whiskey Blues (Sittin' Here and Drinking)
TTITLE12=Canary Bird
TTITLE13=Little Geneva
TTITLE14=You're Gonna Miss Me
TTITLE15=Stand Here Trembling
TTITLE16=Screaming and Crying
TTITLE17=Rolling Stone
TTITLE18=Rollin' And Tumbling
TTITLE19=Walkin' Blues
EXTD=Muddy Waters, Volume 1\nRoots
EXTT0=
EXTT1=
EXTT2=
EXTT3=
EXTT4=
EXTT5=
EXTT6=
EXTT7=
EXTT8=
EXTT9=
EXTT10=
EXTT11=
EXTT12=
EXTT13=
EXTT14=
EXTT15=
EXTT16=
EXTT17=
EXTT18=
EXTT19=
PLAYORDER=
